<svg xmlns="http://www.w3.org/2000/svg" viewBox="0 0 560 350" role="img" aria-labelledby="title desc"><title id="title">Qwen3-0.6B: before and after quantization</title><desc id="desc">GSM8K Pass@1 (%) (higher is better). Means from Table 2. Vanilla: FP16 62.58; W4A4 45.67. OASIS: FP16 62.68; W4A4 58.88.</desc><rect width="560" height="350" fill="#fcfcfc"/><g font-family="Arial, Helvetica, sans-serif" fill="#303030">
<text x="36" y="30" font-size="16">Qwen3-0.6B</text><text x="36" y="53" font-size="12" fill="#666">GSM8K Pass@1 (%) (higher is better)</text>
<rect x="337" y="20" width="11" height="11" fill="#929292"/><text x="355" y="30" font-size="12">FP16</text><rect x="415" y="20" width="11" height="11" fill="#242424"/><text x="433" y="30" font-size="12">W4A4</text>
<line x1="65" x2="525" y1="295.0" y2="295.0" stroke="#e5e5e5"/><text x="51" y="299.0" font-size="12" text-anchor="end" fill="#666">0</text>
<line x1="65" x2="525" y1="240.71428571428572" y2="240.71428571428572" stroke="#e5e5e5"/><text x="51" y="244.71428571428572" font-size="12" text-anchor="end" fill="#666">20</text>
<line x1="65" x2="525" y1="186.42857142857142" y2="186.42857142857142" stroke="#e5e5e5"/><text x="51" y="190.42857142857142" font-size="12" text-anchor="end" fill="#666">40</text>
<line x1="65" x2="525" y1="132.14285714285714" y2="132.14285714285714" stroke="#e5e5e5"/><text x="51" y="136.14285714285714" font-size="12" text-anchor="end" fill="#666">60</text>
<rect x="114" y="125.13999999999999" width="43" height="169.86" fill="#929292"/><text x="135.5" y="115.13999999999999" text-anchor="middle" font-size="14">62.58</text>
<rect x="176" y="171.0385714285714" width="43" height="123.96142857142858" fill="#242424"/><text x="197.5" y="161.0385714285714" text-anchor="middle" font-size="14">45.67</text>
<text x="166.5" y="325" text-anchor="middle" font-size="14">Vanilla</text>
<rect x="341" y="124.86857142857141" width="43" height="170.1314285714286" fill="#929292"/><text x="362.5" y="114.86857142857141" text-anchor="middle" font-size="14">62.68</text>
<rect x="403" y="135.18285714285713" width="43" height="159.81714285714287" fill="#242424"/><text x="424.5" y="125.18285714285713" text-anchor="middle" font-size="14">58.88</text>
<text x="393.5" y="325" text-anchor="middle" font-size="14">OASIS</text>
</g></svg>